# xmcd
#
# Track frame offsets:
#	150
#	11747
#	28710
#	44145
#	64362
#	77422
#	97960
#	114847
#	130310
#	143510
#	157592
#	176555
#	189370
#	204450
#	220697
#	237320
#	253392
#	266537
#	282092
#	283530
#	285917
#
# Disc length: 3962 seconds
#
# Revision: 1
# Processed by: cddbd v1.5.2PL0 Copyright (c) Steve Scherf et al.
# Submitted via: audiograbber 1.83.01
#
DISCID=250f7815
DTITLE=Various Artist - CDX 71 November 1993
DYEAR=1993
DGENRE=Country
TTITLE0=Chris Isaak - Dark Moon
TTITLE1=Mary Chapin Carpenter - He Thinks He'll Keep Her
TTITLE2=Mark Chesnutt - I Just Wanted You To Know
TTITLE3=John Michael Montgomery - I Swear
TTITLE4=Dennis Robbins - Mona Lisa On Cruise Control
TTITLE5=Smokin' Armadillos - Red Rock
TTITLE6=Brooks and Dunn - Rock My World (Little Country Girl)
TTITLE7=Confederate Railroad - She Never Cried
TTITLE8=Karen Donovan - Tell Me, Tell Me True
TTITLE9=Collin Raye - That's My Story
TTITLE10=Mark O'Connor and Charlie Daniels featuring Johnny Cash, Marty Stuart 
TTITLE10=and Travis Tritt - The Devil Comes Back To Georgia
TTITLE11=Becky Williams - The Trouble With Love
TTITLE12=Reba McEntire - They Asked About You
TTITLE13=Alabama - T.L.C. And A.S.A.P.
TTITLE14=Highway - Who's Gonna Love You
TTITLE15=Randy Travis - Wind In The Wire
TTITLE16=Mid South - We'll Go To The Well
TTITLE17=Turner Nichols - She Loves To Hear Me Ropck (Dance Mix)
TTITLE18=Lisa Stewart - PSA
TTITLE19=Lisa Stewart - PSA
TTITLE20=Charlie Case - Christmas Is For Kids
EXTD=
EXTT0=
EXTT1=
EXTT2=
EXTT3=
EXTT4=
EXTT5=
EXTT6=
EXTT7=
EXTT8=
EXTT9=
EXTT10=
EXTT11=
EXTT12=
EXTT13=
EXTT14=
EXTT15=
EXTT16=
EXTT17=
EXTT18=
EXTT19=
EXTT20=
PLAYORDER=
